<mxfile host="app.diagrams.net" modified="2022-05-13T05:42:43.936Z" agent="5.0 (Windows NT 10.0; Win64; x64) AppleWebKit/537.36 (KHTML, like Gecko) Chrome/101.0.4951.54 Safari/537.36 Edg/101.0.1210.39" etag="vrlCFD_F3oQQ3exqFfhd" version="17.2.4" type="github">
  <diagram id="j2Jd_fu0Cfwwz_d4lHzJ" name="Page-1">
    <mxGraphModel dx="1224" dy="648" grid="1" gridSize="10" guides="1" tooltips="1" connect="1" arrows="1" fold="1" page="1" pageScale="1" pageWidth="850" pageHeight="1100" math="0" shadow="0">
      <root>
        <mxCell id="0" />
        <mxCell id="1" parent="0" />
        <mxCell id="uP5V_jZ9QeokBeH3otzB-1" value="padding&lt;br&gt;col" style="rounded=0;whiteSpace=wrap;html=1;" vertex="1" parent="1">
          <mxGeometry x="80" y="120" width="60" height="160" as="geometry" />
        </mxCell>
        <mxCell id="uP5V_jZ9QeokBeH3otzB-2" value="icon&lt;br&gt;col" style="rounded=0;whiteSpace=wrap;html=1;" vertex="1" parent="1">
          <mxGeometry x="140" y="120" width="60" height="160" as="geometry" />
        </mxCell>
        <mxCell id="uP5V_jZ9QeokBeH3otzB-3" value="message&lt;br&gt;col" style="rounded=0;whiteSpace=wrap;html=1;" vertex="1" parent="1">
          <mxGeometry x="260" y="120" width="110" height="160" as="geometry" />
        </mxCell>
        <mxCell id="uP5V_jZ9QeokBeH3otzB-4" value="padding&lt;br&gt;col" style="rounded=0;whiteSpace=wrap;html=1;" vertex="1" parent="1">
          <mxGeometry x="200" y="120" width="60" height="160" as="geometry" />
        </mxCell>
      </root>
    </mxGraphModel>
  </diagram>
</mxfile>
